<svg xmlns="http://www.w3.org/2000/svg" width="500" height="500" style="width:100%;height:100%;transform:translate3d(0,0,0);content-visibility:visible" viewBox="0 0 500 500"><defs><clipPath id="g"><path d="M0 0h500v500H0z"/></clipPath><clipPath id="j"><path d="M0 0h500v500H0z"/></clipPath><clipPath id="e"><path d="M0 0h500v500H0z"/></clipPath><clipPath id="h"><path d="M0 0h500v500H0z"/></clipPath><clipPath id="f"><path d="M0 0h500v500H0z"/></clipPath><filter id="a" width="100%" height="100%" x="0%" y="0%" filterUnits="objectBoundingBox"><feComponentTransfer in="SourceGraphic"><feFuncA tableValues="1.0 0.0" type="table"/></feComponentTransfer></filter><filter id="c" width="100%" height="100%" x="0%" y="0%" filterUnits="objectBoundingBox"><feComponentTransfer in="SourceGraphic"><feFuncA tableValues="1.0 0.0" type="table"/></feComponentTransfer></filter><mask id="k" mask-type="alpha"><g filter="url(#a)"><path fill="#fff" d="M0 0h500v500H0z" opacity="0"/><use xmlns:ns1="http://www.w3.org/1999/xlink" ns1:href="#b"/></g></mask><mask id="i" mask-type="alpha"><g filter="url(#c)"><path fill="#fff" d="M0 0h500v500H0z" opacity="0"/><use xmlns:ns2="http://www.w3.org/1999/xlink" ns2:href="#d"/></g></mask><g id="b" clip-path="url(#e)" style="display:none"><g class="primary design" style="display:none"><path fill-opacity="0" stroke-linecap="round" stroke-linejoin="round"/><path/><path/><path fill-opacity="0"/></g><path fill-opacity="0" stroke-linecap="round" stroke-linejoin="round" class="primary design" style="display:none"/><path fill-opacity="0" stroke-linecap="round" stroke-linejoin="round" class="primary design" style="display:none"/></g><g id="d" fill-opacity="0" stroke-linecap="round" stroke-linejoin="round" clip-path="url(#f)" style="display:none"><path class="primary design" style="display:none"/><path class="primary design" style="display:none"/></g></defs><g clip-path="url(#g)"><g clip-path="url(#h)" style="display:block"><g class="primary design" mask="url(#i)" style="display:none"><path class="primary"/><path fill="none" class="primary"/><path class="primary"/><path fill="none" class="primary"/></g><g class="primary design" style="display:none"><path class="primary"/><path fill="none" class="primary"/></g><g class="primary design" style="display:none"><path fill="#121330" d="M416.747 77.636v343.728c0 8.541-7.083 15.624-15.624 15.624h-130.2v-83.537c0-9.791-6.874-18.332-16.457-20.415-35.831-7.5-61.663-39.581-61.663-76.245 0-8.749 1.25-16.874 3.958-24.582 3.75-10.833-2.083-22.706-13.124-26.456-10.833-3.541-22.707 2.083-26.457 13.124-3.958 11.874-6.041 24.582-6.041 37.914 0 50.413 32.081 95.202 78.12 112.284v67.913h-93.744c-8.541 0-15.624-7.083-15.624-15.624v-52.913c-46.039-15.207-78.12-58.955-78.12-108.535 0-40.206 20.416-76.87 54.58-97.702 14.791-9.166 23.54-23.748 23.54-38.747V77.636c0-8.541 7.083-15.624 15.624-15.624h265.608c8.541 0 15.624 7.083 15.624 15.624z" class="primary"/></g><g class="primary design" style="display:block"><path fill="#121330" d="M416.747 77.636v343.728c0 8.541-7.083 15.624-15.624 15.624h-130.2v-83.537c0-9.791-6.874-18.332-16.457-20.415-35.831-7.5-61.663-39.581-61.663-76.245 0-8.749 1.25-16.874 3.958-24.582 3.75-10.833-2.083-22.706-13.124-26.456-10.833-3.541-22.707 2.083-26.457 13.124-3.958 11.874-6.041 24.582-6.041 37.914 0 50.413 32.081 95.202 78.12 112.284v67.913h-93.744c-8.541 0-15.624-7.083-15.624-15.624v-52.913c-46.039-15.207-78.12-58.955-78.12-108.535 0-40.206 20.416-76.87 54.58-97.702 14.791-9.166 23.54-23.748 23.54-38.747V77.636c0-8.541 7.083-15.624 15.624-15.624h265.608c8.541 0 15.624 7.083 15.624 15.624z" class="primary"/></g></g><g clip-path="url(#j)" style="display:none"><g class="primary design" mask="url(#k)" style="display:none"><path fill="none" class="primary"/><path class="primary"/><path class="primary"/><path fill="none" class="primary"/></g><g class="primary design" style="display:none"><path class="primary"/><path fill="none" class="primary"/></g><g class="primary design" style="display:none"><path class="primary"/></g></g></g></svg>